<?xml version="1.0" encoding="UTF-8"?>
<svg id="Layer_1" xmlns="http://www.w3.org/2000/svg" version="1.1" viewBox="0 0 841.9 595.3">
  <!-- Generator: Adobe Illustrator 30.2.1, SVG Export Plug-In . SVG Version: 2.1.1 Build 1)  -->
  <defs>
    <style>
      .st0 {
        fill: #336ae9;
      }

      .st1 {
        fill: #fefefe;
      }
    </style>
  </defs>
  <path class="st0" d="M593.95,184.22v227.04c-1.65,16.31-8.4,30.78-20.55,42.14-10.79,10.09-24.36,15.84-38.84,17.25h-227.04c-14.83-1.47-28.62-7.45-39.35-17.84-.88-.68-1.52-1.32-2.2-2.2-10.55-10.93-16.64-25.15-17.82-40.37v-224.81c1.08-14.62,6.74-28.28,16.5-39.11l4.79-4.8c10.85-9.87,24.58-15.6,39.3-16.68h224.81c15.22,1.18,29.44,7.27,40.37,17.82.95.74,1.66,1.45,2.38,2.39,10.32,10.74,16.21,24.53,17.66,39.17ZM522.58,265.19h-117.24c-2.97-.25-5.72-3.43-5.74-6.09-.03-3.12-.14-6.11.03-9.2.18-3.3,2.86-5.66,6.11-6.09l117.72-.07c3.05,0,5.16-3.06,5.78-5.72l-.1-42.51c0-3.26-3.08-5.47-6.08-5.95l-204,.04c-3.01,0-6.13,3.14-6.13,6.13l-.05,149.97c.49,2.97,2.68,6.1,5.96,6.1l74.92.08c3.18-.65,5.44-2.92,5.79-6.14l.02-20.21c.41-3.39,2.96-5.72,6.36-6.11l117.53-.06c3.03,0,5.24-3.03,5.75-5.72v-42.51c-.52-3.38-3.11-5.63-6.63-5.94ZM393.83,405.92c3.21-.73,5.35-2.99,5.72-6.13v-20.58c-.56-3.05-3-5.88-6.36-5.89l-73.95-.07c-3.46.5-5.81,2.76-6.35,6.17v20.37c.44,2.89,2.69,6.05,5.94,6.05l75,.08Z"/>
  <g>
    <path class="st1" d="M522.58,265.19c3.52.31,6.1,2.55,6.64,5.94v42.51c-.52,2.69-2.74,5.72-5.76,5.72l-117.53.06c-3.4.39-5.95,2.72-6.36,6.11l-.02,20.21c-.36,3.21-2.61,5.48-5.79,6.14l-74.92-.08c-3.29,0-5.47-3.13-5.96-6.1l.05-149.97c0-2.99,3.12-6.13,6.13-6.13l204-.04c3,.48,6.08,2.69,6.08,5.95l.1,42.51c-.62,2.66-2.73,5.71-5.78,5.72l-117.72.07c-3.25.43-5.93,2.8-6.11,6.09-.17,3.09-.06,6.08-.03,9.2.02,2.65,2.77,5.83,5.74,6.08h117.24Z"/>
    <path class="st1" d="M393.83,405.92l-75-.08c-3.26,0-5.5-3.17-5.94-6.05v-20.37c.54-3.41,2.88-5.66,6.35-6.17l73.95.07c3.36,0,5.8,2.83,6.35,5.89v20.58c-.36,3.15-2.5,5.4-5.71,6.13Z"/>
  </g>
</svg>